<?xml version="1.0" standalone="no"?>
<!DOCTYPE svg PUBLIC "-//W3C//DTD SVG 1.1//EN"
"http://www.w3.org/Graphics/SVG/1.1/DTD/svg11.dtd">

<svg width="290" height="136" view_box="0 0 290 136"
xmlns="http://www.w3.org/2000/svg"
xmlns:link="http://www.w3.org/1999/xlink">\n\n<desc>Généré par Mocodo 2.3.7 le Fri, 07 Jan 2022 02:19:14</desc>

<rect id="frame" x="0" y="0" width="290" height="136" fill="#f7f7f7" stroke="none" stroke-width="0"/>

<!-- Association OCCUPE -->
<line x1="50" y1="68" x2="156" y2="68" stroke="#9970ab" stroke-width="2"/>
<text x="96" y="85.0" fill="#1b7837" font-family="Verdana" font-size="12">1,N</text>
<line x1="251" y1="68" x2="156" y2="68" stroke="#9970ab" stroke-width="2"/>
<text x="194" y="85.0" fill="#1b7837" font-family="Verdana" font-size="12">1,N</text>
<g id="association-OCCUPE">
	<path d="M 175 43 a 14 14 90 0 1 14 14 V 68 h -66 V 57 a 14 14 90 0 1 14 -14" fill="#c2a5cf" stroke="#c2a5cf" stroke-width="0"/>
	<path d="M 189 68.0 v 11 a 14 14 90 0 1 -14 14 H 137 a 14 14 90 0 1 -14 -14 V 68.0 H 66" fill="#e7d4e8" stroke="#e7d4e8" stroke-width="0"/>
	<rect x="123" y="43" width="66" height="50" fill="none" rx="14" stroke="#9970ab" stroke-width="2"/>
	<line x1="123" y1="68" x2="189" y2="68" stroke="#9970ab" stroke-width="1"/>
	<text x="130" y="60.7" fill="#000000" font-family="Verdana" font-size="12">OCCUPE</text>
	<text x="130" y="85.8" fill="#000000" font-family="Verdana" font-size="12">niveau</text>
</g>

<!-- Entity PERSON -->
<g id="entity-PERSON">
	<g id="frame-PERSON">
		<rect x="9" y="9" width="82" height="25" fill="#a6dba0" stroke="#a6dba0" stroke-width="0"/>
		<rect x="9" y="34.0" width="82" height="93" fill="#d9f0d3" stroke="#d9f0d3" stroke-width="0"/>
		<rect x="9" y="9" width="82" height="118" fill="none" stroke="#5aae61" stroke-width="2"/>
		<line x1="9" y1="34" x2="91" y2="34" stroke="#5aae61" stroke-width="1"/>
	</g>
	<text x="24" y="26.7" fill="#000000" font-family="Verdana" font-size="12">PERSON</text>
	<text x="14" y="51.7" fill="#000000" font-family="Verdana" font-size="12">id_person</text>
	<line x1="14" y1="54" x2="74" y2="54" stroke="#000000" stroke-width="1"/>
	<text x="14" y="68.8" fill="#000000" font-family="Verdana" font-size="12">name</text>
	<text x="14" y="85.8" fill="#000000" font-family="Verdana" font-size="12">first_name</text>
	<text x="14" y="102.8" fill="#000000" font-family="Verdana" font-size="12">department</text>
	<text x="14" y="119.8" fill="#000000" font-family="Verdana" font-size="12">mail</text>
</g>

<!-- Entity SPORT -->
<g id="entity-SPORT">
	<g id="frame-SPORT">
		<rect x="221" y="34" width="60" height="25" fill="#a6dba0" stroke="#a6dba0" stroke-width="0"/>
		<rect x="221" y="59.0" width="60" height="43" fill="#d9f0d3" stroke="#d9f0d3" stroke-width="0"/>
		<rect x="221" y="34" width="60" height="68" fill="none" stroke="#5aae61" stroke-width="2"/>
		<line x1="221" y1="59" x2="281" y2="59" stroke="#5aae61" stroke-width="1"/>
	</g>
	<text x="230" y="51.7" fill="#000000" font-family="Verdana" font-size="12">SPORT</text>
	<text x="226" y="76.8" fill="#000000" font-family="Verdana" font-size="12">id_sport</text>
	<line x1="226" y1="79" x2="276" y2="79" stroke="#000000" stroke-width="1"/>
	<text x="226" y="93.8" fill="#000000" font-family="Verdana" font-size="12">design</text>
</g>
</svg>